<svg xmlns="http://www.w3.org/2000/svg" width="20" height="20"><path style="stroke:none;fill-rule:evenodd;fill:#fff;fill-opacity:1" d="M2.148 4.285a2.135 2.135 0 0 1-1.984-1.32A2.142 2.142 0 0 1 .625.625a2.149 2.149 0 0 1 2.34-.469 2.15 2.15 0 0 1 1.324 1.985 2.142 2.142 0 0 1-2.14 2.144zm0 7.871a2.149 2.149 0 0 1-2.152-2.14 2.146 2.146 0 1 1 2.152 2.14zm0 7.867a2.149 2.149 0 0 1-2.152-2.14c0-1.188.961-2.149 2.145-2.153a2.147 2.147 0 0 1 .007 4.293zm7.864-15.738a2.144 2.144 0 1 1 .004-4.289 2.146 2.146 0 1 1-.004 4.29zm0 7.871a2.149 2.149 0 0 1-2.145-2.148 2.146 2.146 0 1 1 2.145 2.148zm0 7.867a2.146 2.146 0 1 1 2.148-2.144 2.15 2.15 0 0 1-.629 1.52 2.13 2.13 0 0 1-1.52.624zm7.867-15.738c-1.184 0-2.14-.96-2.14-2.148 0-1.184.964-2.145 2.148-2.14a2.146 2.146 0 1 1-.008 4.288zm0 7.871a2.146 2.146 0 1 1 .01-4.295 2.146 2.146 0 0 1-.01 4.295zm0 7.867a2.146 2.146 0 1 1 2.152-2.144 2.15 2.15 0 0 1-.629 1.52 2.145 2.145 0 0 1-1.523.624zm0 0"/></svg>