<?xml version="1.0" encoding="UTF-8"?>
<svg xmlns="http://www.w3.org/2000/svg" xmlns:xlink="http://www.w3.org/1999/xlink" width="13px" height="13px" viewBox="0 0 13 14" version="1.1">
<g id="surface1">
<path style=" stroke:none;fill-rule:nonzero;fill:#fff;fill-opacity:1;" d="M 6.5 7 C 8.550781 7 10.214844 5.433594 10.214844 3.5 C 10.214844 1.566406 8.550781 0 6.5 0 C 4.449219 0 2.785156 1.566406 2.785156 3.5 C 2.785156 5.433594 4.449219 7 6.5 7 Z M 7.972656 8.3125 L 5.027344 8.3125 C 2.253906 8.3125 0 10.433594 0 13.050781 C 0 13.574219 0.449219 14 1.003906 14 L 11.996094 14 C 12.550781 14 13 13.578125 13 13.050781 C 13 10.433594 10.75 8.3125 7.972656 8.3125 Z M 7.972656 8.3125 "/>
</g>
</svg>
